<svg  xmlns="http://www.w3.org/2000/svg">
    <symbol id="full-star" viewBox="0 0 24 24" fill="#111111" stroke="#111111" stroke-width="2" stroke-linecap="round" stroke-linejoin="round">
        <polygon points="12,2 15.09,8.26 22,9.27 17,14.14 18.18,21.02 12,17.77 5.82,21.02 7,14.14 2,9.27 8.91,8.26"/>
    </symbol>

    <symbol id="half-star" viewBox="0 0 24 24" fill="#111111" stroke="#111111" stroke-width="2" stroke-linecap="round" stroke-linejoin="round">
        <polygon points="12,2 12,17.77 5.82,21.02 7,14.14 2,9.27 8.91,8.26" />
    </symbol>

    <symbol id="github-icon" viewBox="0 0 24 24">
        <path 
            d="M12 .5C5.65.5.75 5.4.75 11.77c0 5.09 3.29 9.41 7.86 10.94.57.1.78-.25.78-.55
            0-.27-.01-1.17-.02-2.12-3.2.7-3.88-1.39-3.88-1.39-.52-1.34-1.28-1.7-1.28-1.7
            -1.05-.73.08-.72.08-.72 1.16.08 1.77 1.21 1.77 1.21
            1.03 1.78 2.7 1.26 3.36.96.1-.75.4-1.26.72-1.55
            -2.55-.29-5.23-1.29-5.23-5.75 0-1.27.45-2.3 1.2-3.11
            -.12-.3-.52-1.5.11-3.13 0 0 .98-.32 3.2 1.19
            .93-.26 1.93-.39 2.92-.39.99 0 1.99.13 2.92.39
            2.22-1.51 3.2-1.19 3.2-1.19.63 1.63.23 2.83.11 3.13
            .75.81 1.2 1.84 1.2 3.11 0 4.47-2.68 5.46-5.24 5.75
            .41.36.77 1.08.77 2.18 0 1.57-.01 2.83-.01 3.21
            0 .31.21.67.79.55A11.28 11.28 0 0 0 23.25 11.77
            C23.25 5.4 18.35.5 12 .5z" />
    </symbol>
</svg>