<svg  xmlns="http://www.w3.org/2000/svg">
    <symbol id="full-star" viewBox="0 0 24 24" fill="#111111" stroke="#111111" stroke-width="2" stroke-linecap="round" stroke-linejoin="round">
        <polygon points="12,2 15.09,8.26 22,9.27 17,14.14 18.18,21.02 12,17.77 5.82,21.02 7,14.14 2,9.27 8.91,8.26"/>
    </symbol>

    <symbol id="half-star" viewBox="0 0 24 24" fill="#111111" stroke="#111111" stroke-width="2" stroke-linecap="round" stroke-linejoin="round">
        <polygon points="12,2 12,17.77 5.82,21.02 7,14.14 2,9.27 8.91,8.26" />
    </symbol>

    <symbol id="github-icon" viewBox="0 0 24 24">
        <path 
            d="M12 .5C5.65.5.75 5.4.75 11.77c0 5.09 3.29 9.41 7.86 10.94.57.1.78-.25.78-.55
            0-.27-.01-1.17-.02-2.12-3.2.7-3.88-1.39-3.88-1.39-.52-1.34-1.28-1.7-1.28-1.7
            -1.05-.73.08-.72.08-.72 1.16.08 1.77 1.21 1.77 1.21
            1.03 1.78 2.7 1.26 3.36.96.1-.75.4-1.26.72-1.55
            -2.55-.29-5.23-1.29-5.23-5.75 0-1.27.45-2.3 1.2-3.11
            -.12-.3-.52-1.5.11-3.13 0 0 .98-.32 3.2 1.19
            .93-.26 1.93-.39 2.92-.39.99 0 1.99.13 2.92.39
            2.22-1.51 3.2-1.19 3.2-1.19.63 1.63.23 2.83.11 3.13
            .75.81 1.2 1.84 1.2 3.11 0 4.47-2.68 5.46-5.24 5.75
            .41.36.77 1.08.77 2.18 0 1.57-.01 2.83-.01 3.21
            0 .31.21.67.79.55A11.28 11.28 0 0 0 23.25 11.77
            C23.25 5.4 18.35.5 12 .5z" />
    </symbol>

    <symbol id="php-icon" viewBox="0 0 640 640">
    <path fill="rgb(39, 39, 38)" d="M320 168.5C491.4 168.5 
    623.2 240.7 623.2 320C623.2 399.3 491.3 471.5 320 471.5C148.6 
    471.5 16.8 399.3 16.8 320C16.8 240.7 148.7 168.5 320 168.5zM320 
    151.7C143.3 151.7 0 227 0 320C0 413 143.3 488.3 320 488.3C496.7 488.3 
    640 413 640 320C640 227 496.7 151.7 320 151.7zM218.2 306.5C210.3 347 182.4 
    342.8 148.1 342.8L161.8 272.2C199.8 272.2 225.6 268.1 218.2 306.5zM97.4 
    414.3L134.1 414.3L142.8 369.5C183.9 369.5 209.4 372.5 233 350.4C259.1 
    326.4 265.9 283.7 247.3 262.3C237.6 251.1 222 245.6 200.8 
    245.6L130.1 245.6L97.4 414.3zM283.1 200.7L319.6 200.7L310.9 245.5C342.4 
    245.5 371.6 243.2 385.7 256.2C400.5 269.8 393.4 287.2 377.4 369.3L340.4 
    369.3C355.8 289.9 358.7 283.3 353.1 277.3C347.7 271.5 335.4 272.7 305.7 
    272.7L286.9 369.3L250.4 369.3L283.1 200.7zM505 306.5C497 347.6 468.3 
    342.8 434.9 342.8L448.6 272.2C486.8 272.2 512.4 268.1 505 306.5zM384.2 
    414.3L421 414.3L429.7 369.5C472.9 369.5 496.8 372 519.9 350.4C546 326.4 
    552.8 283.7 534.2 262.3C524.5 251.1 508.9 245.6 487.7 245.6L417 245.6L384.2 
    414.3z"/>
    </symbol>
</svg>